<svg width="120" height="93" viewBox="0 0 120 93" fill="none" xmlns="http://www.w3.org/2000/svg">
<path fill-rule="evenodd" clip-rule="evenodd" d="M85.7409 37.0731C85.7946 31.0045 113.359 29.8775 115.738 19.4097C117.507 11.6582 106.022 -0.548994 95.9463 0.0193486C84.1769 0.685395 77.7872 20.5605 69.4051 19.1158C64.575 18.2753 63.3902 10.47 57.6402 6.64441C50.3479 1.78944 38.0891 1.0876 31.596 7.51303C30.0929 8.99802 26.9411 12.8 27.2123 17.7181C27.7212 27.0406 40.314 29.7957 40.2416 36.725C40.1262 48.7401 2.15046 52.3848 0.0929113 66.6254C-1.31851 76.4042 13.5705 90.3916 26.8633 89.7003C41.4515 88.9371 49.4966 67.0392 60.1139 70.1681C71.4449 73.5085 78.884 95.9233 97.7884 92.5349C109.317 90.4726 122.561 72.2027 118.494 61.4169C113.777 48.9053 85.678 43.1915 85.7409 37.0731Z" fill="white"/>
</svg>
