<svg width="231" height="45" viewBox="0 0 231 45" fill="none" xmlns="http://www.w3.org/2000/svg">
<path d="M19.7083 14.2952C21.0663 14.2551 22.2837 14.3642 23.1995 14.6546C24.0876 14.9362 24.8701 15.4541 24.9846 16.346C25.1539 17.6709 24.7608 18.6608 24.0247 19.4232C23.318 20.1549 22.3149 20.6558 21.3088 21.0911C20.2687 21.5412 19.2314 21.9197 18.2883 22.4222C17.3575 22.9182 16.606 23.4942 16.1536 24.2737C15.7764 24.9246 15.6007 25.81 15.6633 26.639C15.727 27.4813 16.0242 28.1473 16.4573 28.47L16.5774 28.5511C16.8728 28.7294 17.2651 28.8372 17.7366 28.8763C18.2712 28.9206 18.8685 28.8726 19.4583 28.7728C20.6484 28.5712 21.7174 28.1729 22.052 27.9915L22.053 27.9905C23.153 27.3962 24.2885 26.4401 25.0959 25.3314C25.9074 24.217 26.3455 23.0099 26.176 21.8939L26.1477 21.7562C26.1119 21.6143 26.0533 21.4596 25.9758 21.2845C25.9248 21.1691 25.8686 21.0508 25.8079 20.9251C25.7483 20.8018 25.6843 20.6698 25.6233 20.5364C25.384 20.0129 25.1354 19.3496 25.3079 18.6175C25.491 17.839 26.0343 17.2492 26.6321 16.8382C27.2329 16.4252 27.9374 16.1571 28.5442 16.0374L28.7795 15.9984C29.9559 15.8334 31.1053 16.165 32.0793 16.7298C33.1171 17.3316 33.9927 18.2174 34.5442 19.1361V19.137C36.0123 21.5865 35.4519 24.5651 34.4475 27.0325C33.4342 29.5217 31.9103 31.6402 31.219 32.4925C26.2656 38.5948 20.9241 39.466 16.8752 39.9476C15.6348 40.095 12.6143 40.136 9.5022 39.304C6.48962 38.4986 3.30224 36.8491 1.62915 33.5911L1.47192 33.2708C-0.159236 29.7784 0.504626 26.0319 1.6936 23.5833C2.38818 22.1519 5.14182 18.4321 10.4983 16.2845L11.0754 16.0618C13.9776 14.9792 17.1544 14.3708 19.7083 14.2952Z" fill="white" stroke="black"/>
<path d="M42.9811 17.036C44.0079 16.1233 45.3965 15.8053 46.733 15.8886C47.9867 15.9668 49.2483 16.4001 50.2194 17.0946L50.4098 17.2362V17.2372C51.2229 17.8749 51.6723 18.7861 52.0348 19.4608C52.2256 19.816 52.3867 20.1004 52.5641 20.3143C52.7349 20.5203 52.8945 20.6285 53.069 20.6718H53.068C53.3828 20.7488 53.7515 20.637 54.2506 20.2557C54.748 19.8757 55.2622 19.316 55.8522 18.6884C56.4255 18.0784 57.0607 17.4157 57.7574 16.91C58.4577 16.4019 59.2635 16.0203 60.1793 16.0282C61.6953 16.0411 63.173 17.0262 64.1725 18.205C64.6795 18.803 65.0877 19.4777 65.3297 20.1532C65.5699 20.8238 65.659 21.5342 65.4723 22.1776C65.2143 23.0667 64.4596 23.6555 63.6305 24.0712C62.7915 24.4918 61.769 24.7881 60.8131 25.039C59.832 25.2964 58.9379 25.5023 58.2633 25.746C57.9276 25.8673 57.6885 25.9847 57.5377 26.0966C57.465 26.1505 57.4261 26.1931 57.4069 26.2216C57.3905 26.2459 57.3887 26.258 57.3883 26.2626C57.3876 26.2719 57.3886 26.353 57.5406 26.5292C57.6877 26.6995 57.924 26.8968 58.2496 27.1239C58.9038 27.5802 59.7926 28.0725 60.7701 28.6513C61.7297 29.2194 62.7539 29.8601 63.6051 30.5839C64.451 31.3032 65.1768 32.1473 65.4713 33.1376C65.728 34.0006 65.6367 34.9512 65.3405 35.8671C65.0432 36.7862 64.5293 37.703 63.8971 38.5253C62.6505 40.1466 60.8455 41.5153 59.1373 41.7118C56.3932 42.0282 54.611 40.4771 53.2135 38.8583C52.8632 38.4525 52.5298 38.0342 52.2115 37.6356C51.8909 37.234 51.5856 36.8531 51.2799 36.5057C50.6606 35.802 50.0888 35.2969 49.4869 35.0702V35.0692C49.0069 34.8889 48.5083 34.9843 47.9049 35.3349C47.2882 35.6932 46.6487 36.2677 45.9215 36.9237C45.2124 37.5634 44.4316 38.2695 43.5807 38.8075C42.7244 39.3488 41.7603 39.7451 40.6783 39.7313C38.7673 39.7069 36.8719 38.608 35.5387 37.2235C34.8668 36.5257 34.3177 35.7353 33.9703 34.9345C33.6248 34.1376 33.4647 33.296 33.6256 32.5175C33.8637 31.3638 34.7898 30.544 35.8688 29.9159C36.9585 29.2815 38.3243 28.7751 39.6217 28.3036C40.9429 27.8234 42.187 27.3803 43.1217 26.8651C44.0826 26.3355 44.5274 25.8301 44.566 25.3075C44.5878 25.0085 44.4805 24.7194 44.236 24.3847C43.9827 24.0379 43.6308 23.7035 43.2213 23.2977C42.4466 22.5299 41.4831 21.5323 41.4987 20.0497L41.5133 19.7675C41.6396 18.3824 42.5615 17.4086 42.9801 17.036H42.9811Z" fill="white" stroke="black"/>
<path d="M79.3981 14.4879C80.8851 14.3461 82.8038 14.3238 84.694 14.6911C86.5814 15.0578 88.4828 15.8212 89.8805 17.2848V17.2858C91.0776 18.5423 91.4204 19.7356 91.3297 20.5514C91.268 21.1084 90.9471 22.1397 89.9869 22.692L89.986 22.693C89.0438 23.2319 88.0728 22.8214 87.235 22.4401C86.3315 22.0288 85.3932 21.5459 84.2164 21.4342H84.2155C83.8729 21.4013 82.3052 21.2513 80.8092 21.319C80.056 21.3531 79.3587 21.441 78.8541 21.608C78.3787 21.7655 78.2364 21.9341 78.2008 22.0455L78.191 22.0895C78.1853 22.1451 78.1968 22.165 78.2047 22.1774C78.2185 22.1988 78.2578 22.2449 78.3639 22.3014C78.5896 22.4216 78.9734 22.5183 79.5377 22.5983C80.09 22.6766 80.7526 22.7309 81.5074 22.7955C82.2559 22.8596 83.0844 22.933 83.944 23.0494C87.3571 23.5117 91.4516 24.6763 93.2633 28.8942C94.1944 31.0619 93.828 33.1565 93.1403 34.7828C92.5413 36.1989 91.6842 37.2978 91.1588 37.8502L90.9547 38.0543C86.3678 42.3235 80.3776 42.0229 78.1119 41.9352C75.2202 41.8213 72.006 40.1929 69.6354 38.1862C68.4445 37.1781 67.44 36.0526 66.7838 34.9371C66.1347 33.8337 65.7865 32.6686 66.0397 31.6198C66.6839 28.9524 69.3531 26.9857 72.9156 27.2711H72.9166C73.9338 27.3535 74.8198 27.8879 75.5641 28.4459C75.9391 28.7271 76.2979 29.0297 76.6237 29.2994C76.9562 29.5749 77.2536 29.8143 77.5309 29.9967L77.7955 30.1588C78.4605 30.5394 79.4363 30.9261 80.2926 31.0621C80.7864 31.1406 81.1767 31.1247 81.4323 31.0309C81.5525 30.9867 81.6309 30.9297 81.6823 30.8678C81.7321 30.8075 81.778 30.7176 81.7965 30.5719L81.8053 30.4674C81.8288 29.9448 81.5224 29.4576 80.778 28.9303C79.9835 28.3676 78.8222 27.8579 77.4576 27.3014C76.1139 26.7534 74.5911 26.1673 73.1539 25.4625C71.7154 24.7572 70.3249 23.9151 69.2389 22.8336H69.2379C68.7547 22.3522 68.4907 21.8715 68.3531 21.4157C68.2175 20.9663 68.2132 20.5647 68.2155 20.2711L68.2223 20.111C68.2857 19.3187 68.7651 18.6193 69.4147 18.0309C70.1138 17.3976 71.0725 16.8346 72.149 16.3541C74.3046 15.392 77.0353 14.7152 79.3981 14.4879Z" fill="white" stroke="black"/>
<path d="M104.415 1.70113C106.907 1.72549 109.396 3.59892 109.724 6.32906C109.922 7.97679 109.325 9.46803 108.38 10.5263C107.442 11.5759 106.12 12.2454 104.822 12.1787C102.052 12.0363 99.0684 10.4048 98.8739 7.3027L98.8641 7.00973C98.8509 4.0015 101.604 1.67312 104.415 1.70113Z" fill="white" stroke="black"/>
<mask id="path-5-outside-1_145_10800" maskUnits="userSpaceOnUse" x="96.75" y="-0.998966" width="135" height="46" fill="black">
<rect fill="white" x="96.75" y="-0.998966" width="135" height="46"/>
<path d="M146.972 4.70123C148.561 2.28996 151.737 0.407019 154.198 1.17389C155.368 1.53977 156.669 2.69094 157.702 5.36236C159.41 9.77039 158.442 13.7023 157.921 17.4844C157.027 23.9778 157.107 30.3307 160.111 32.0323C160.904 32.4818 161.854 32.7019 162.52 32.4727C168.883 30.2907 171.467 22.7928 175.439 19.4688C178.295 17.0795 181.256 15.849 183.323 15.2803C186.271 14.4692 189.854 14.262 194.054 15.2803C196.962 15.9857 199.392 17.406 200.185 18.1465C204.949 22.6075 203.404 28.5667 203.671 30.2422C204.542 35.7129 211.121 39.4209 218.799 33.796C220.52 32.5352 225.552 28.1134 228.872 31.3712C232.699 35.127 226.038 40.0156 220.112 42.3917C214.449 44.6618 207.446 43.644 204.564 41.9512C199.537 38.9933 198.875 36.0968 196.462 35.7794C194.96 35.5819 192.844 41.312 186.827 41.2901C178.935 41.2636 177.086 37.4769 175.221 37.543C174.196 37.5785 172.531 40.3686 166.899 42.6124C163.978 43.7761 159.471 44.1503 155.95 42.171C153.296 40.6809 151.207 36.3134 149.162 36.6612C148.588 36.7582 148.268 37.1986 147.629 37.7628C146.753 38.5386 145.68 39.2181 144.563 39.7471C143.197 40.3951 140.665 41.0294 137.556 40.8487C131.958 40.5225 128.906 38.8999 127.264 36.8809C126.265 35.6555 125.814 34.1925 124.636 34.2364C123.918 34.2628 121.907 37.6173 120.913 38.6446C119.323 40.2845 114.877 43.7938 108.649 42.6124C103.53 41.6424 100.92 36.4366 100.109 34.4571C98.6159 30.8159 97.613 24.1769 101.204 21.6729C103.411 20.1345 107.134 20.3062 108.649 22.1133C110.633 24.4806 106.937 32.4727 111.059 34.0157C114.886 35.4484 123.155 28.8848 123.103 12.1954C123.085 6.4029 126.514 3.24165 130.329 3.59869C132.007 3.75739 135.111 5.89579 136.022 9.10943C136.32 10.1628 136.299 11.1324 136.242 11.754C135.857 15.836 134.079 19.2264 133.614 23.2159C133.168 27.0422 133.689 29.7483 135.366 30.9297C136.041 31.4058 136.851 31.6007 137.556 31.5919C141.099 31.5565 144.826 26.3236 146.096 21.0118C147.449 15.3429 144.003 9.21087 146.972 4.70123ZM191.645 23.877C189.867 22.2992 187.371 23.1225 186.608 23.4356C184.988 24.1013 182.693 25.9576 183.104 28.2852C183.486 30.4496 185.969 31.6271 187.922 31.5919C190.366 31.5478 192.793 29.594 192.959 27.1827C193.025 26.2393 192.757 24.8643 191.645 23.877Z"/>
</mask>
<path d="M146.972 4.70123C148.561 2.28996 151.737 0.407019 154.198 1.17389C155.368 1.53977 156.669 2.69094 157.702 5.36236C159.41 9.77039 158.442 13.7023 157.921 17.4844C157.027 23.9778 157.107 30.3307 160.111 32.0323C160.904 32.4818 161.854 32.7019 162.52 32.4727C168.883 30.2907 171.467 22.7928 175.439 19.4688C178.295 17.0795 181.256 15.849 183.323 15.2803C186.271 14.4692 189.854 14.262 194.054 15.2803C196.962 15.9857 199.392 17.406 200.185 18.1465C204.949 22.6075 203.404 28.5667 203.671 30.2422C204.542 35.7129 211.121 39.4209 218.799 33.796C220.52 32.5352 225.552 28.1134 228.872 31.3712C232.699 35.127 226.038 40.0156 220.112 42.3917C214.449 44.6618 207.446 43.644 204.564 41.9512C199.537 38.9933 198.875 36.0968 196.462 35.7794C194.96 35.5819 192.844 41.312 186.827 41.2901C178.935 41.2636 177.086 37.4769 175.221 37.543C174.196 37.5785 172.531 40.3686 166.899 42.6124C163.978 43.7761 159.471 44.1503 155.95 42.171C153.296 40.6809 151.207 36.3134 149.162 36.6612C148.588 36.7582 148.268 37.1986 147.629 37.7628C146.753 38.5386 145.68 39.2181 144.563 39.7471C143.197 40.3951 140.665 41.0294 137.556 40.8487C131.958 40.5225 128.906 38.8999 127.264 36.8809C126.265 35.6555 125.814 34.1925 124.636 34.2364C123.918 34.2628 121.907 37.6173 120.913 38.6446C119.323 40.2845 114.877 43.7938 108.649 42.6124C103.53 41.6424 100.92 36.4366 100.109 34.4571C98.6159 30.8159 97.613 24.1769 101.204 21.6729C103.411 20.1345 107.134 20.3062 108.649 22.1133C110.633 24.4806 106.937 32.4727 111.059 34.0157C114.886 35.4484 123.155 28.8848 123.103 12.1954C123.085 6.4029 126.514 3.24165 130.329 3.59869C132.007 3.75739 135.111 5.89579 136.022 9.10943C136.32 10.1628 136.299 11.1324 136.242 11.754C135.857 15.836 134.079 19.2264 133.614 23.2159C133.168 27.0422 133.689 29.7483 135.366 30.9297C136.041 31.4058 136.851 31.6007 137.556 31.5919C141.099 31.5565 144.826 26.3236 146.096 21.0118C147.449 15.3429 144.003 9.21087 146.972 4.70123ZM191.645 23.877C189.867 22.2992 187.371 23.1225 186.608 23.4356C184.988 24.1013 182.693 25.9576 183.104 28.2852C183.486 30.4496 185.969 31.6271 187.922 31.5919C190.366 31.5478 192.793 29.594 192.959 27.1827C193.025 26.2393 192.757 24.8643 191.645 23.877Z" fill="white"/>
<path d="M146.972 4.70123L146.137 4.15079L146.136 4.15134L146.972 4.70123ZM154.198 1.17389L154.497 0.219511L154.496 0.219151L154.198 1.17389ZM157.702 5.36236L156.77 5.72321L156.77 5.72364L157.702 5.36236ZM157.921 17.4844L156.93 17.3479L156.93 17.3481L157.921 17.4844ZM160.111 32.0323L160.605 31.1624L160.604 31.1621L160.111 32.0323ZM162.52 32.4727L162.195 31.5268L162.194 31.5272L162.52 32.4727ZM175.439 19.4688L174.798 18.7019L174.798 18.7019L175.439 19.4688ZM183.323 15.2803L183.588 16.2445L183.589 16.2445L183.323 15.2803ZM194.054 15.2803L194.289 14.3085L194.289 14.3085L194.054 15.2803ZM200.185 18.1465L200.868 17.4165L200.867 17.4158L200.185 18.1465ZM203.671 30.2422L204.658 30.0849L204.658 30.0849L203.671 30.2422ZM218.799 33.796L218.208 32.9892L218.208 32.9893L218.799 33.796ZM228.872 31.3712L228.172 32.0849L228.172 32.0849L228.872 31.3712ZM220.112 42.3917L220.484 43.3199L220.484 43.3198L220.112 42.3917ZM204.564 41.9512L204.057 42.8131L204.058 42.8135L204.564 41.9512ZM196.462 35.7794L196.592 34.7879L196.592 34.7879L196.462 35.7794ZM186.827 41.2901L186.831 40.2901L186.83 40.2901L186.827 41.2901ZM175.221 37.543L175.255 38.5424L175.256 38.5424L175.221 37.543ZM166.899 42.6124L167.27 43.5414L167.27 43.5414L166.899 42.6124ZM155.95 42.171L156.44 41.2992L156.44 41.299L155.95 42.171ZM149.162 36.6612L149.329 37.6472L149.33 37.647L149.162 36.6612ZM147.629 37.7628L146.967 37.013L146.966 37.0142L147.629 37.7628ZM144.563 39.7471L144.135 38.8434L144.135 38.8436L144.563 39.7471ZM137.556 40.8487L137.497 41.847L137.498 41.847L137.556 40.8487ZM127.264 36.8809L128.039 36.2499L128.039 36.2493L127.264 36.8809ZM124.636 34.2364L124.673 35.2357L124.673 35.2357L124.636 34.2364ZM120.913 38.6446L121.631 39.3407L121.632 39.34L120.913 38.6446ZM108.649 42.6124L108.836 41.6299L108.836 41.6298L108.649 42.6124ZM100.109 34.4571L101.035 34.0782L101.035 34.0776L100.109 34.4571ZM101.204 21.6729L100.632 20.8525L100.632 20.8526L101.204 21.6729ZM108.649 22.1133L109.416 21.471L109.416 21.4708L108.649 22.1133ZM111.059 34.0157L110.708 34.9522L110.708 34.9522L111.059 34.0157ZM123.103 12.1954L122.103 12.1984L122.103 12.1985L123.103 12.1954ZM130.329 3.59869L130.423 2.60314L130.422 2.60304L130.329 3.59869ZM136.022 9.10943L136.985 8.83745L136.985 8.83671L136.022 9.10943ZM136.242 11.754L137.238 11.848L137.238 11.8452L136.242 11.754ZM133.614 23.2159L134.608 23.3318L134.608 23.3315L133.614 23.2159ZM135.366 30.9297L135.943 30.1128L135.942 30.1122L135.366 30.9297ZM137.556 31.5919L137.546 30.5919L137.543 30.5919L137.556 31.5919ZM146.096 21.0118L147.068 21.2443L147.068 21.244L146.096 21.0118ZM191.645 23.877L192.308 23.1291L192.308 23.1291L191.645 23.877ZM186.608 23.4356L186.229 22.5105L186.228 22.5106L186.608 23.4356ZM183.104 28.2852L184.089 28.1118L184.089 28.111L183.104 28.2852ZM187.922 31.5919L187.904 30.592H187.904L187.922 31.5919ZM192.959 27.1827L191.961 27.1133L191.961 27.1138L192.959 27.1827ZM146.972 4.70123L147.807 5.25167C148.507 4.18947 149.569 3.23129 150.72 2.63293C151.881 2.02874 153.009 1.85077 153.901 2.12862L154.198 1.17389L154.496 0.219151C152.926 -0.269867 151.236 0.110203 149.797 0.858585C148.347 1.6128 147.026 2.80172 146.137 4.15079L146.972 4.70123ZM154.198 1.17389L153.9 2.12826C154.668 2.36874 155.796 3.20729 156.77 5.72321L157.702 5.36236L158.635 5.00152C157.541 2.17458 156.067 0.710803 154.497 0.219512L154.198 1.17389ZM157.702 5.36236L156.77 5.72364C158.361 9.83073 157.468 13.4427 156.93 17.3479L157.921 17.4844L158.912 17.6209C159.416 13.9619 160.459 9.71005 158.635 5.00108L157.702 5.36236ZM157.921 17.4844L156.93 17.3481C156.479 20.6275 156.264 23.9321 156.56 26.6633C156.848 29.3141 157.658 31.7919 159.619 32.9024L160.111 32.0323L160.604 31.1621C159.56 30.571 158.828 29.0217 158.549 26.4473C158.278 23.9533 158.469 20.8347 158.912 17.6207L157.921 17.4844ZM160.111 32.0323L159.618 32.9021C160.097 33.174 160.634 33.3827 161.17 33.4882C161.696 33.5917 162.291 33.6088 162.845 33.4183L162.52 32.4727L162.194 31.5272C162.082 31.5657 161.869 31.5874 161.556 31.5258C161.253 31.4661 160.918 31.34 160.605 31.1624L160.111 32.0323ZM162.52 32.4727L162.844 33.4186C166.322 32.2259 168.711 29.5977 170.674 27.0022C171.167 26.3494 171.64 25.6897 172.097 25.05C172.557 24.4068 172.999 23.7865 173.441 23.1948C174.329 22.006 175.18 20.9901 176.081 20.2357L175.439 19.4688L174.798 18.7019C173.713 19.6095 172.751 20.7773 171.839 21.9974C171.381 22.6102 170.925 23.2506 170.47 23.8874C170.013 24.5277 169.554 25.1672 169.079 25.7958C167.165 28.3257 165.08 30.5374 162.195 31.5268L162.52 32.4727ZM175.439 19.4688L176.081 20.2358C178.808 17.9545 181.633 16.7824 183.588 16.2445L183.323 15.2803L183.058 14.3161C180.879 14.9156 177.782 16.2045 174.798 18.7019L175.439 19.4688ZM183.323 15.2803L183.589 16.2445C186.371 15.4787 189.782 15.2736 193.818 16.2522L194.054 15.2803L194.289 14.3085C189.926 13.2505 186.17 13.4597 183.058 14.3162L183.323 15.2803ZM194.054 15.2803L193.818 16.2522C195.188 16.5845 196.452 17.0872 197.465 17.5944C198.496 18.1107 199.206 18.6005 199.502 18.8773L200.185 18.1465L200.867 17.4158C200.371 16.952 199.469 16.3614 198.36 15.806C197.233 15.2416 195.827 14.6815 194.289 14.3085L194.054 15.2803ZM200.185 18.1465L199.501 18.8765C201.659 20.8971 202.395 23.2502 202.62 25.3458C202.734 26.4011 202.717 27.3848 202.684 28.2347C202.669 28.6468 202.648 29.0605 202.64 29.4021C202.633 29.7385 202.635 30.0935 202.683 30.3996L203.671 30.2422L204.658 30.0849C204.64 29.9721 204.632 29.7743 204.64 29.4467C204.647 29.1243 204.666 28.7628 204.683 28.3108C204.716 27.4327 204.738 26.3337 204.609 25.1321C204.349 22.714 203.475 19.8569 200.868 17.4165L200.185 18.1465ZM203.671 30.2422L202.683 30.3996C203.176 33.4917 205.288 36.0988 208.365 37.1283C211.456 38.1623 215.355 37.5589 219.39 34.6026L218.799 33.796L218.208 32.9893C214.565 35.658 211.336 36.013 209 35.2316C206.651 34.4457 205.037 32.4635 204.658 30.0849L203.671 30.2422ZM218.799 33.796L219.39 34.6027C220.327 33.9165 221.885 32.5995 223.649 31.7999C225.406 31.0036 226.96 30.8963 228.172 32.0849L228.872 31.3712L229.572 30.6574C227.464 28.5882 224.843 29.063 222.823 29.9783C220.811 30.8904 218.992 32.4146 218.208 32.9892L218.799 33.796ZM228.872 31.3712L228.172 32.0849C228.919 32.818 229.083 33.505 228.966 34.1713C228.837 34.9124 228.331 35.7745 227.432 36.7028C225.639 38.5518 222.634 40.3029 219.74 41.4635L220.112 42.3917L220.484 43.3198C223.516 42.1044 226.805 40.2231 228.868 38.0948C229.895 37.0345 230.708 35.8217 230.936 34.5156C231.178 33.1348 230.739 31.8022 229.572 30.6574L228.872 31.3712ZM220.112 42.3917L219.74 41.4635C217.08 42.53 214.069 42.8349 211.36 42.6596C208.631 42.4831 206.33 41.8283 205.071 41.089L204.564 41.9512L204.058 42.8135C205.681 43.7669 208.322 44.4674 211.231 44.6555C214.159 44.8448 217.482 44.5235 220.484 43.3199L220.112 42.3917ZM204.564 41.9512L205.072 41.0893C202.677 39.6805 201.33 38.2958 200.252 37.1801C199.221 36.1131 198.209 35.0005 196.592 34.7879L196.462 35.7794L196.332 36.7708C197.128 36.8756 197.654 37.37 198.814 38.57C199.926 39.7214 201.424 41.264 204.057 42.8131L204.564 41.9512ZM196.462 35.7794L196.592 34.7879C196.067 34.7188 195.625 34.9239 195.321 35.1202C195.013 35.3193 194.721 35.5909 194.458 35.8569C194.192 36.1259 193.899 36.448 193.608 36.7608C193.309 37.0822 192.992 37.4153 192.646 37.7463C191.271 39.0618 189.475 40.2997 186.831 40.2901L186.827 41.2901L186.824 42.2901C190.196 42.3024 192.466 40.6862 194.029 39.1915C194.417 38.8199 194.765 38.4532 195.072 38.1232C195.387 37.7845 195.642 37.5035 195.88 37.2634C196.12 37.0203 196.287 36.8769 196.406 36.8005C196.528 36.7213 196.481 36.7905 196.332 36.7708L196.462 35.7794ZM186.827 41.2901L186.83 40.2901C183.067 40.2775 180.797 39.3743 179.253 38.5093C178.426 38.0465 177.879 37.6438 177.238 37.2467C176.679 36.9006 175.983 36.5154 175.185 36.5437L175.221 37.543L175.256 38.5424C175.392 38.5376 175.626 38.601 176.185 38.9471C176.662 39.2422 177.42 39.7754 178.275 40.2544C180.094 41.2728 182.695 42.2763 186.824 42.2901L186.827 41.2901ZM175.221 37.543L175.186 36.5436C174.841 36.5556 174.545 36.6791 174.322 36.8005C174.096 36.9236 173.874 37.0837 173.667 37.2449C173.457 37.408 173.225 37.6014 172.984 37.8015C172.738 38.0057 172.47 38.2269 172.169 38.4638C170.978 39.4017 169.236 40.605 166.529 41.6834L166.899 42.6124L167.27 43.5414C170.195 42.376 172.101 41.0624 173.406 40.0354C173.729 39.7811 174.014 39.5456 174.261 39.3405C174.513 39.1313 174.715 38.9627 174.894 38.8242C175.074 38.6838 175.195 38.6025 175.278 38.5575C175.364 38.5107 175.344 38.5393 175.255 38.5424L175.221 37.543ZM166.899 42.6124L166.529 41.6834C163.798 42.7715 159.623 43.0885 156.44 41.2992L155.95 42.171L155.46 43.0427C159.32 45.212 164.158 44.7807 167.27 43.5414L166.899 42.6124ZM155.95 42.171L156.44 41.299C155.898 40.995 155.348 40.5209 154.772 39.9328C154.191 39.3394 153.652 38.704 153.072 38.0584C152.517 37.4418 151.92 36.8104 151.303 36.3586C150.691 35.9116 149.899 35.5216 148.994 35.6753L149.162 36.6612L149.33 37.647C149.448 37.6269 149.684 37.6524 150.122 37.9731C150.554 38.289 151.029 38.7774 151.584 39.3953C152.114 39.9845 152.722 40.6985 153.343 41.3323C153.969 41.9713 154.675 42.6019 155.461 43.0429L155.95 42.171ZM149.162 36.6612L148.995 35.6752C148.467 35.7645 148.083 36.0161 147.781 36.268C147.636 36.3883 147.495 36.5214 147.37 36.6404C147.238 36.7653 147.111 36.8858 146.967 37.013L147.629 37.7628L148.291 38.5125C148.466 38.3576 148.619 38.2115 148.745 38.0921C148.878 37.9668 148.973 37.8779 149.06 37.8055C149.22 37.6719 149.283 37.6549 149.329 37.6472L149.162 36.6612ZM147.629 37.7628L146.966 37.0142C146.172 37.7175 145.182 38.3478 144.135 38.8434L144.563 39.7471L144.992 40.6509C146.179 40.0885 147.334 39.3597 148.292 38.5113L147.629 37.7628ZM144.563 39.7471L144.135 38.8436C142.935 39.4126 140.573 40.0224 137.614 39.8504L137.556 40.8487L137.498 41.847C140.757 42.0365 143.459 41.3777 144.992 40.6507L144.563 39.7471ZM137.556 40.8487L137.614 39.8504C132.176 39.5335 129.441 37.9725 128.039 36.2499L127.264 36.8809L126.488 37.512C128.371 39.8274 131.741 41.5115 137.497 41.847L137.556 40.8487ZM127.264 36.8809L128.039 36.2493C127.825 35.9866 127.634 35.703 127.435 35.3988C127.248 35.1105 127.035 34.7738 126.817 34.4828C126.385 33.9069 125.704 33.1959 124.598 33.2371L124.636 34.2364L124.673 35.2357C124.746 35.233 124.879 35.2315 125.217 35.6825C125.384 35.905 125.545 36.161 125.76 36.4904C125.964 36.8037 126.203 37.1625 126.488 37.5126L127.264 36.8809ZM124.636 34.2364L124.599 33.2371C124.18 33.2525 123.858 33.4785 123.702 33.5974C123.509 33.7454 123.322 33.9315 123.152 34.1178C122.809 34.4934 122.433 34.9837 122.074 35.4711C121.891 35.7181 121.707 35.9724 121.529 36.2189C121.349 36.4669 121.175 36.7068 121.009 36.9318C120.667 37.3948 120.391 37.7463 120.195 37.9491L120.913 38.6446L121.632 39.34C121.932 39.0293 122.281 38.5762 122.617 38.1205C122.791 37.8861 122.97 37.6381 123.148 37.3918C123.328 37.1439 123.506 36.8974 123.682 36.6592C124.039 36.1763 124.362 35.7588 124.63 35.4659C124.765 35.318 124.86 35.2296 124.919 35.1851C125.014 35.1115 124.912 35.2269 124.673 35.2357L124.636 34.2364ZM120.913 38.6446L120.195 37.9485C118.707 39.4838 114.582 42.7199 108.836 41.6299L108.649 42.6124L108.463 43.5948C115.173 44.8677 119.94 41.0852 121.631 39.3407L120.913 38.6446ZM108.649 42.6124L108.836 41.6298C106.579 41.2024 104.835 39.8348 103.531 38.2726C102.227 36.7097 101.418 35.015 101.035 34.0782L100.109 34.4571L99.1839 34.8359C99.6108 35.8786 100.512 37.7767 101.996 39.554C103.48 41.3321 105.6 43.0524 108.463 43.5949L108.649 42.6124ZM100.109 34.4571L101.035 34.0776C100.329 32.3581 99.7393 29.9186 99.75 27.6433C99.761 25.333 100.381 23.4657 101.776 22.4932L101.204 21.6729L100.632 20.8526C98.4358 22.3841 97.7621 25.0883 97.7501 27.6338C97.7379 30.2143 98.396 32.9149 99.1842 34.8366L100.109 34.4571ZM101.204 21.6729L101.776 22.4933C102.663 21.8751 103.914 21.5703 105.131 21.6371C106.365 21.7047 107.365 22.1382 107.883 22.7559L108.649 22.1133L109.416 21.4708C108.418 20.2814 106.799 19.7255 105.241 19.6401C103.667 19.5538 101.953 19.9323 100.632 20.8525L101.204 21.6729ZM108.649 22.1133L107.883 22.7557C108.128 23.0477 108.286 23.6562 108.283 24.752C108.28 25.8204 108.14 26.9877 108.055 28.3091C107.974 29.5585 107.947 30.9189 108.255 32.0924C108.578 33.3186 109.295 34.4232 110.708 34.9522L111.059 34.0157L111.409 33.0792C110.761 32.8366 110.395 32.3637 110.19 31.5834C109.97 30.7504 109.97 29.6756 110.05 28.4382C110.126 27.2727 110.28 25.9016 110.283 24.7576C110.286 23.6409 110.163 22.3626 109.416 21.471L108.649 22.1133ZM111.059 34.0157L110.708 34.9522C112.014 35.441 113.551 35.202 115.02 34.447C116.502 33.6852 118.007 32.3581 119.349 30.4833C122.037 26.7274 124.129 20.6957 124.103 12.1922L123.103 12.1954L122.103 12.1985C122.128 20.3845 120.113 25.9793 117.722 29.3194C116.525 30.9926 115.249 32.0808 114.106 32.6682C112.949 33.2625 112.017 33.3067 111.409 33.0791L111.059 34.0157ZM123.103 12.1954L124.103 12.1923C124.094 9.4906 124.889 7.51059 126.02 6.2625C127.144 5.0223 128.647 4.44565 130.236 4.59434L130.329 3.59869L130.422 2.60304C128.196 2.39469 126.078 3.22015 124.538 4.91943C123.005 6.61082 122.093 9.10767 122.103 12.1984L123.103 12.1954ZM130.329 3.59869L130.235 4.59424C130.787 4.64652 131.793 5.08132 132.807 5.96313C133.795 6.82212 134.669 8.00233 135.06 9.38216L136.022 9.10943L136.985 8.83671C136.465 7.00289 135.331 5.50708 134.119 4.45378C132.934 3.42331 131.548 2.70955 130.423 2.60314L130.329 3.59869ZM136.022 9.10943L135.06 9.38141C135.312 10.2732 135.297 11.1081 135.246 11.6628L136.242 11.754L137.238 11.8452C137.301 11.1567 137.328 10.0525 136.985 8.83745L136.022 9.10943ZM136.242 11.754L135.247 11.66C135.064 13.5915 134.552 15.3726 133.999 17.2352C133.454 19.0738 132.865 21.004 132.621 23.1003L133.614 23.2159L134.608 23.3315C134.828 21.4383 135.36 19.6785 135.916 17.8041C136.465 15.9536 137.035 13.9985 137.238 11.848L136.242 11.754ZM133.614 23.2159L132.621 23.0999C132.391 25.0724 132.4 26.8267 132.717 28.2778C133.034 29.7329 133.681 30.9661 134.79 31.7473L135.366 30.9297L135.942 30.1122C135.374 29.7119 134.922 29.0014 134.671 27.8515C134.419 26.6975 134.391 25.1857 134.608 23.3318L133.614 23.2159ZM135.366 30.9297L134.79 31.7467C135.661 32.3621 136.685 32.6028 137.568 32.5918L137.556 31.5919L137.543 30.5919C137.016 30.5985 136.42 30.4495 135.943 30.1128L135.366 30.9297ZM137.556 31.5919L137.566 32.5918C139.806 32.5695 141.878 30.9428 143.468 28.8935C145.094 26.7971 146.402 24.0293 147.068 21.2443L146.096 21.0118L145.123 20.7792C144.519 23.3062 143.328 25.8107 141.888 27.6676C140.411 29.5715 138.848 30.5789 137.546 30.5919L137.556 31.5919ZM146.096 21.0118L147.068 21.244C147.797 18.1925 147.231 15.0131 146.921 12.308C146.599 9.49072 146.542 7.17299 147.807 5.25112L146.972 4.70123L146.136 4.15134C144.433 6.73911 144.614 9.74221 144.934 12.5356C145.267 15.4411 145.748 18.1622 145.123 20.7796L146.096 21.0118ZM191.645 23.877L192.308 23.1291C191.161 22.1108 189.801 21.8924 188.695 21.9485C187.597 22.0041 186.665 22.3313 186.229 22.5105L186.608 23.4356L186.988 24.3607C187.314 24.2268 188.011 23.9857 188.796 23.9459C189.573 23.9065 190.35 24.0654 190.981 24.6249L191.645 23.877ZM186.608 23.4356L186.228 22.5106C185.294 22.8946 184.179 23.6107 183.338 24.5831C182.493 25.5603 181.844 26.9004 182.12 28.4594L183.104 28.2852L184.089 28.111C183.953 27.3425 184.246 26.5906 184.851 25.8913C185.46 25.1872 186.303 24.6422 186.988 24.3606L186.608 23.4356ZM183.104 28.2852L182.12 28.4586C182.373 29.8982 183.318 30.9506 184.4 31.6155C185.477 32.2771 186.775 32.6127 187.94 32.5917L187.922 31.5919L187.904 30.592C187.116 30.6062 186.195 30.3708 185.447 29.9113C184.704 29.4551 184.217 28.8367 184.089 28.1118L183.104 28.2852ZM187.922 31.5919L187.94 32.5917C189.414 32.5651 190.85 31.9677 191.943 31.036C193.037 30.1036 193.851 28.7779 193.957 27.2515L192.959 27.1827L191.961 27.1138C191.9 27.9987 191.418 28.8556 190.646 29.514C189.873 30.173 188.874 30.5745 187.904 30.592L187.922 31.5919ZM192.959 27.1827L193.957 27.252C194.037 26.0965 193.717 24.3794 192.308 23.1291L191.645 23.877L190.981 24.6249C191.797 25.3492 192.012 26.3822 191.961 27.1133L192.959 27.1827Z" fill="black" mask="url(#path-5-outside-1_145_10800)"/>
</svg>
