<svg width="231" height="180" viewBox="0 0 231 180" fill="none" xmlns="http://www.w3.org/2000/svg">
<path d="M62.7167 16.272C68.3828 10.665 76.7193 8.03344 85.5148 7.99506C94.3056 7.95678 103.239 10.5182 109.82 14.8994L109.821 14.8994C114.84 18.2386 117.905 23.3318 121.113 28.3541C122.663 30.7818 124.292 33.2513 126.188 35.2115C128.123 37.2111 130.464 38.8188 133.475 39.3427L133.479 39.3435C138.628 40.231 143.18 37.7685 147.155 34.3834C151.134 30.9942 155.057 26.2237 158.965 21.599C162.949 16.8835 166.985 12.233 171.378 8.66981C175.617 5.23187 180.008 2.95933 184.787 2.56542L185.251 2.53335C193.986 2.04068 203.729 7.14099 210.994 14.4811C214.59 18.1135 217.457 22.1792 219.215 26.1497C220.983 30.144 221.55 33.8511 220.857 36.8901L220.856 36.8921C219.945 40.8996 216.53 44.3559 211.085 47.4752C205.697 50.5616 198.837 53.0265 191.898 55.2916C185.081 57.517 178.085 59.578 172.878 61.8015C170.269 62.9156 167.904 64.1516 166.153 65.6007C164.406 67.0468 162.943 68.9889 162.919 71.4974C162.894 73.9699 164.288 76.0502 165.965 77.7155C167.674 79.4132 170.029 81.0305 172.693 82.6013C178.007 85.7345 185.221 89.0527 192.45 92.6234C199.773 96.2407 207.236 100.173 213.413 104.653C219.622 109.155 224.252 114.014 226.272 119.372C227.994 123.94 227.945 129.485 226.388 135.46C224.835 141.419 221.823 147.638 217.859 153.403C209.854 165.049 198.408 174.244 188.222 176.066L188.221 176.066C171.236 179.11 159.329 170.693 148.602 160.045C145.923 157.385 143.351 154.621 140.794 151.879C138.25 149.152 135.717 146.442 133.172 143.964C128.121 139.047 122.761 134.768 116.683 132.976C110.582 131.178 104.998 133.072 99.8983 136.419C94.8617 139.725 89.9275 144.696 85.0043 149.635C79.9966 154.659 74.9253 159.732 69.395 163.662C63.8911 167.572 58.0969 170.226 51.6967 170.561C39.7347 171.183 26.7588 165.165 17.0263 156.506C12.1873 152.201 8.25479 147.332 5.70737 142.481C3.22926 137.761 2.14089 133.218 2.60395 129.277L2.65358 128.898C3.4868 123.131 8.02433 118.067 15.2996 113.284C22.5137 108.541 31.8419 104.445 41.3012 100.383C50.6451 96.3713 60.1612 92.3762 67.3244 87.9023C74.3435 83.5184 80.0674 78.0922 80.1378 70.88C80.1815 66.7014 78.2909 63.294 75.8072 60.3885C73.3692 57.5367 70.1107 54.8947 67.1082 52.3445C60.8526 47.0314 55.423 41.8424 54.9974 34.0479L54.9973 34.0459C54.5353 25.6655 59.9547 19.0009 62.7158 16.273L62.7167 16.272Z" fill="white" stroke="black" stroke-width="5" stroke-miterlimit="10"/>
</svg>
