<svg width="399" height="311" viewBox="0 0 399 311" fill="none" xmlns="http://www.w3.org/2000/svg">
<path d="M105.969 25.4691C116.702 14.8481 132.232 10.0911 148.148 10.0218C163.566 9.9548 179.287 14.2884 191.253 21.8815L192.399 22.6261C201.904 28.9498 207.643 38.5666 213.071 47.0655C215.774 51.2982 218.409 55.2631 221.39 58.345C224.38 61.4348 227.745 63.6643 231.917 64.3904L231.918 64.3914C239.144 65.6368 245.883 62.2717 252.478 56.6551C259.074 51.0378 265.631 43.0767 272.499 34.9498C279.381 26.8046 286.588 18.4774 294.519 12.0451C302.446 5.61566 311.06 1.11173 320.752 0.563247C337.395 -0.375338 355.282 9.24791 368.295 22.3945C374.794 28.9603 380.053 36.3821 383.318 43.7569C386.483 50.9059 387.761 57.9754 386.522 64.1723L386.395 64.7697C384.454 73.3091 377.358 80.0125 367.636 85.5817C357.926 91.1444 345.701 95.5158 333.675 99.4414C321.674 103.359 309.852 106.838 301.038 110.602C296.629 112.485 292.931 114.455 290.324 116.614C287.717 118.772 286.134 121.174 286.109 123.919C286.081 126.675 287.638 129.334 290.254 131.933C292.877 134.538 296.633 137.15 301.156 139.817C310.199 145.15 322.447 150.777 335.139 157.046C347.849 163.324 361.029 170.256 372.012 178.221C383.002 186.191 391.736 195.156 395.627 205.476C398.978 214.363 398.775 224.827 395.95 235.667C393.127 246.503 387.691 257.68 380.624 267.96C366.474 288.543 345.873 305.412 326.792 308.826C295.446 314.444 273.592 298.696 254.772 280.015C250.068 275.345 245.559 270.499 241.14 265.761C236.724 261.026 232.397 256.398 228.064 252.179C219.407 243.75 210.677 236.901 201.086 234.073C192.017 231.401 183.527 234.091 175.188 239.565C166.862 245.03 158.611 253.322 149.995 261.966C141.362 270.627 132.348 279.657 122.456 286.686C112.568 293.711 101.835 298.712 89.7707 299.343L89.7717 299.343C67.7269 300.49 44.2992 289.458 26.9551 274.028C18.2885 266.317 11.1617 257.526 6.49761 248.645C1.83141 239.759 -0.353798 230.816 0.805832 222.781C2.4935 211.101 11.5605 201.52 24.4035 193.077C37.2343 184.641 53.7169 177.417 70.0465 170.405C86.3527 163.404 102.514 156.611 114.617 149.052C126.691 141.511 134.918 133.091 135.017 122.767C135.08 116.809 132.415 111.776 128.434 107.12C124.462 102.473 119.129 98.144 113.793 93.6122C103.072 84.5062 92.3011 74.5404 91.4637 59.1987C90.5973 43.4878 100.333 31.1957 105.485 25.9546L105.969 25.4691Z" fill="white" stroke="black" stroke-miterlimit="10"/>
</svg>
